<?xml version="1.0" encoding="UTF-8"?><svg id="Layer_1" xmlns="http://www.w3.org/2000/svg" viewBox="0 0 1500 465.37"><defs><style>.cls-1{fill:#fa6400;}</style></defs><path class="cls-1" d="M168.72,179.99c-.35,21.18-1.06,75.89-1.06,132.02,0,58.95,0,98.83.71,132.72h-61.42c-7.41-24-25.06-72.36-41.3-112.95-7.06-22.59-12.35-46.24-16.94-69.89h-.71c1.77,28.24,2.82,53.3,3.18,75.89.35,55.06.71,92.13,1.06,106.95H0c0-34.95.35-75.89.35-132.37s0-98.13-.35-132.37h68.12c4.59,18,24.71,70.6,39.89,117.9,5.65,16.94,10.24,37.42,14.12,58.24l.35-.35c-1.76-24-2.82-46.59-3.18-67.77,0-36.71-1.06-83.66-2.12-108.01h51.53Z"/><path class="cls-1" d="M279.55,179.99c61.77,0,90.01,21.18,90.01,126.37,0,110.48-25.06,138.37-91.07,138.37h-78.36c.71-36.71,1.06-75.89,1.06-132.01s-.35-98.84-1.06-132.72h79.42ZM310.61,309.53c0-70.59-10.24-78.01-34.24-78.01-5.65,0-10.94,0-16.24.35-.71,24-.71,53.65-.71,81.19,0,34.59,0,58.24.35,76.24,5.3.35,10.24.35,15.89.35,25.06,0,34.94-8.47,34.94-80.13Z"/><path class="cls-1" d="M479.33,179.99c50.83,0,75.54,21.53,75.54,99.19s-22.24,101.66-79.42,101.66c-7.41,0-14.12-.35-22.24-.71.35,25.06,1.06,46.95,2.12,64.6h-61.06c.71-38.12.71-75.89.71-132.37s0-96.01-.71-132.37h85.07ZM498.74,280.59c0-42-9.18-50.83-30.71-50.83-3.18,0-9.88.35-15.88.35,0,35.3,0,69.18.35,100.25,3.53.35,8.12.35,13.77.35,24.36,0,32.48-8.83,32.48-50.12Z"/><path class="cls-1" d="M1117.74,179.99c-.35,21.18-1.06,75.89-1.06,132.02,0,58.95,0,98.83.71,132.72h-61.42c-7.41-24-25.06-72.36-41.3-112.95-7.06-22.59-12.35-46.24-16.94-69.89h-.71c1.77,28.24,2.82,53.3,3.18,75.89.35,55.06.71,92.13,1.06,106.95h-52.24c0-34.95.35-75.89.35-132.37s0-98.13-.35-132.37h68.12c4.59,18,24.71,70.6,39.89,117.9,5.65,16.94,10.24,37.42,14.12,58.24l.35-.35c-1.76-24-2.82-46.59-3.18-67.77,0-36.71-1.06-83.66-2.12-108.01h51.53Z"/><path class="cls-1" d="M1234.21,179.99c50.83,0,75.54,21.53,75.54,99.19s-22.24,101.66-79.42,101.66c-7.41,0-14.12-.35-22.24-.71.35,25.06,1.06,46.95,2.12,64.6h-61.07c.71-38.12.71-75.89.71-132.37s0-96.01-.71-132.37h85.07ZM1253.63,280.59c0-42-9.18-50.83-30.71-50.83-3.18,0-9.88.35-15.88.35,0,35.3,0,69.18.35,100.25,3.53.35,8.12.35,13.77.35,24.36,0,32.48-8.83,32.48-50.12Z"/><path class="cls-1" d="M1409.99,179.99c61.77,0,90.01,21.18,90.01,126.37,0,110.48-25.06,138.37-91.07,138.37h-78.36c.71-36.71,1.06-75.89,1.06-132.01s-.35-98.84-1.06-132.72h79.42ZM1441.05,309.53c0-70.59-10.24-78.01-34.24-78.01-5.65,0-10.94,0-16.24.35-.7,24-.7,53.65-.7,81.19,0,34.59,0,58.24.35,76.24,5.3.35,10.24.35,15.88.35,25.06,0,34.95-8.47,34.95-80.13Z"/><path class="cls-1" d="M358.6,46.1c0-29,21.31-46.1,55.14-46.1s55.15,17.1,55.15,46.1-21.32,46.1-55.15,46.1-55.14-17.1-55.14-46.1ZM448.7,46.1c0-18.59-13.51-29-34.95-29s-34.95,10.41-34.95,29,13.38,29,34.95,29,34.95-10.41,34.95-29Z"/><path class="cls-1" d="M595.89,2.73v86.74h-17.35l-62.21-62.7v62.7h-19.21V2.73h21.07l58.49,59.48V2.73h19.21Z"/><path class="cls-1" d="M715.09,19.83h-37.92v69.64h-19.83V19.83h-37.67V2.73h95.42v17.1Z"/><path class="cls-1" d="M797.11,71.13h-52.42l-9.29,18.34h-21.19L760.18,2.73h21.69l45.98,86.74h-21.44l-9.29-18.34ZM788.8,55.02l-17.97-35.32-17.97,35.32h35.94Z"/><path class="cls-1" d="M926.65,89.47l-24.91-29.49h-31.35v29.49h-19.7V2.73h59.86c21.19,0,37.18,9.79,37.18,28.63,0,14.75-9.79,23.92-24.16,27.26l26.77,30.86h-23.67ZM909.43,43.62c10.41,0,18.09-2.48,18.09-12.14s-7.68-12.14-18.09-12.14h-39.16v24.29h39.16Z"/><path class="cls-1" d="M976.07,89.47V2.73h19.83v86.74h-19.83Z"/><path class="cls-1" d="M1023.91,46.1c0-29,21.32-46.1,55.15-46.1s55.14,17.1,55.14,46.1-21.31,46.1-55.14,46.1-55.15-17.1-55.15-46.1ZM1114,46.1c0-18.59-13.51-29-34.95-29s-34.95,10.41-34.95,29,13.38,29,34.95,29,34.95-10.41,34.95-29Z"/><path class="cls-1" d="M751.71,465.37c-82.38,0-149.39-67.02-149.39-149.39s67.02-149.39,149.39-149.39,149.39,67.02,149.39,149.39-67.02,149.39-149.39,149.39ZM751.71,189.22c-69.89,0-126.76,56.86-126.76,126.75s56.86,126.75,126.76,126.75,126.75-56.86,126.75-126.75-56.86-126.75-126.75-126.75Z"/><path class="cls-1" d="M823.54,385.99l-7.2-34.78c-3.68-17.76-19.15-30.62-37.29-30.98h-.09c-7.18-.14-9.71-9.59-3.56-13.3l.06-.04c15.54-9.36,22.53-28.23,16.86-45.45l-11.11-33.74c-.73-2.23-3.52-2.98-5.27-1.42l-26.52,23.62c-13.55,12.07-16.94,31.9-8.19,47.79l.03.05c3.47,6.29-3.45,13.2-9.74,9.73h0c-15.88-8.78-35.71-5.41-47.79,8.12l-23.66,26.49c-1.56,1.75-.82,4.53,1.41,5.27l33.72,11.16c17.22,5.7,36.1-1.27,45.48-16.8h0c3.72-6.16,13.16-3.62,13.3,3.56h0c.34,18.14,13.18,33.63,30.94,37.33l34.77,7.24c2.3.48,4.34-1.56,3.86-3.86ZM743.99,323.01l-7.16,4.93c-3.72,2.56-8.1,3.99-12.62,4.1l-15.58.4c-.55.01-.74-.72-.26-.98l13.72-7.4c3.97-2.14,8.49-3.09,12.99-2.72l8.66.72c.49.04.65.67.25.95ZM755.83,310.19l-.69-8.66c-.36-4.5.6-9.01,2.75-12.98l7.44-13.7c.26-.48.99-.28.98.26l-.45,15.58c-.13,4.51-1.57,8.89-4.14,12.6l-4.95,7.14c-.28.4-.91.23-.95-.26ZM786.14,353.48l-13.27-8.18c-3.84-2.37-6.92-5.8-8.85-9.89l-3.71-7.86c-.21-.44.25-.9.69-.69l7.85,3.73c4.08,1.94,7.5,5.02,9.86,8.87l8.14,13.3c.29.47-.25,1-.72.71Z"/></svg>