<?xml version="1.0" encoding="UTF-8"?><svg id="a" xmlns="http://www.w3.org/2000/svg" width="18in" height="1.91in" viewBox="0 0 1295.79 137.3"><path d="M1023.21,67.16c11.26,0,18.76-5.06,18.76-14.45v-.37c0-9.57-6.93-14.45-18.57-14.45h-12.01v29.26h11.82ZM967.5,2.82h59.09c34.89,0,58.72,15.57,58.72,46.71v.38c0,31.71-24.19,48.59-59.66,48.59h-14.26v35.65h-43.9V2.82Z" fill="#fff"/><path d="M99.26,69.06v-.38c0-15.6-10.72-29.7-27.64-29.7s-27.26,13.91-27.26,29.33v.38c0,15.6,10.72,29.7,27.64,29.7s27.26-13.91,27.26-29.32ZM0,69.06v-.38C0,30.52,31.39.07,72,.07s71.62,30.08,71.62,68.24v.38c0,38.16-31.4,68.61-72,68.61S0,107.22,0,69.06Z" fill="#fff"/><path d="M155.64,2.89h41.17l46.81,58.09V2.89h43.61v131.59h-39.1l-48.88-60.72v60.72h-43.61V2.89Z" fill="#fff"/><path d="M335.9,40.11h-38.72V2.89h121.44v37.22h-38.73v94.37h-43.99V40.11Z" fill="#fff"/><path d="M490.98,85.6l-12.03-31.96-12.03,31.96h24.06ZM457.52,1.95h43.61l55.46,132.53h-47.75l-6.96-17.67h-46.05l-6.77,17.67h-47L457.52,1.95Z" fill="#fff"/><path d="M625,65.49c10.53,0,16.92-4.7,16.92-12.78v-.38c0-8.46-6.58-12.59-16.73-12.59h-19.18v25.75h18.99ZM562.03,2.89h64.29c23.31,0,38.16,5.83,47.37,15.04,7.9,7.9,12.03,17.67,12.03,31.2v.38c0,19.17-9.96,32.52-25.94,40.23l30.64,44.74h-50.2l-24.81-37.6h-9.4v37.6h-43.99V2.89Z" fill="#fff"/><rect x="696.79" y="2.89" width="43.99" height="131.59" fill="#fff"/><path d="M852.44,69.06v-.38c0-15.6-10.72-29.7-27.64-29.7s-27.26,13.91-27.26,29.33v.38c0,15.6,10.72,29.7,27.64,29.7s27.26-13.91,27.26-29.32ZM753.19,69.06v-.38C753.19,30.52,784.58.07,825.19.07s71.62,30.08,71.62,68.24v.38c0,38.16-31.4,68.61-72,68.61s-71.62-30.08-71.62-68.23Z" fill="#fff"/><path d="M1182.82,85.62c-5.04,7.22-11.58,11.93-21.91,11.93-14.45,0-24.58-12-24.58-29.07v-.38c0-15.76,9.77-28.71,24.58-28.71,10.67,0,17.34,5.19,22.11,12.93,13.06-10.22,24.99-15.88,36.16-17.15l2.01-.22c-11.08-20.07-30.82-34.96-59.72-34.96-39.21,0-69.79,29.27-69.79,68.48v.37c0,40.71,31.71,68.1,68.11,68.1,31.01,0,49.14-14.41,60.37-32.57-11.71-1.16-24.02-7.34-37.33-18.76Z" fill="#fff"/><path d="M1229.87,91.41c11.89-2.8,18.12-14.22,20.31-19.17l-45.08-1.16c-1-.03-1.8-.87-1.77-1.87.02-1,.86-1.8,1.86-1.77l45.12,1.16c-1.9-4.98-7.54-16.79-19.31-20.2-12.72-3.68-28.86,3.15-48,20.31,18.21,18.1,33.97,25.74,46.86,22.7ZM1255.08,65.99l24.97-37.56c.56-.83,1.69-1.06,2.52-.51.83.55,1.05,1.69.5,2.52l-24.98,37.59c5.24,1.04,18.23,2.55,27.38-5.6,9.89-8.81,12.69-26.12,8.34-51.45-25.02,5.79-39.87,15.07-44.15,27.61-3.96,11.56,2.39,22.91,5.42,27.4ZM1284.32,82.31c8.72,9.97,9.34,27.47,1.86,52.04-24.11-8.88-37.7-19.95-40.4-32.92-2.5-11.99,5.3-22.5,8.81-26.51l20.09,40.42c.44.9,1.54,1.26,2.44.82.89-.45,1.26-1.54.82-2.44l-20.07-40.38c5.41-.38,18.4-.22,26.44,8.98Z" fill="#0ea0db"/></svg>