<svg width="28" height="33" viewBox="0 0 28 33" fill="none" xmlns="http://www.w3.org/2000/svg">
    <path
        d="M0 4.5C0 3.39375 0.89375 2.5 2 2.5C16.3625 2.5 28 14.1375 28 28.5C28 29.6063 27.1063 30.5 26 30.5C24.8937 30.5 24 29.6063 24 28.5C24 16.35 14.15 6.5 2 6.5C0.89375 6.5 0 5.60625 0 4.5ZM0 26.5C0 25.4391 0.421427 24.4217 1.17157 23.6716C1.92172 22.9214 2.93913 22.5 4 22.5C5.06087 22.5 6.07828 22.9214 6.82843 23.6716C7.57857 24.4217 8 25.4391 8 26.5C8 27.5609 7.57857 28.5783 6.82843 29.3284C6.07828 30.0786 5.06087 30.5 4 30.5C2.93913 30.5 1.92172 30.0786 1.17157 29.3284C0.421427 28.5783 0 27.5609 0 26.5ZM2 10.5C11.9438 10.5 20 18.5562 20 28.5C20 29.6063 19.1063 30.5 18 30.5C16.8937 30.5 16 29.6063 16 28.5C16 20.7687 9.73125 14.5 2 14.5C0.89375 14.5 0 13.6062 0 12.5C0 11.3938 0.89375 10.5 2 10.5Z"
        fill="black" fill-opacity="0.2" />
</svg>
    